<svg xmlns="http://www.w3.org/2000/svg" viewBox="0 0 58.16 10.15"><path d="M2.49,6.42,1.65,9.75c-.09.27.18.54.4.21L3.68,7.89A5.49,5.49,0,0,0,4.76,8C7.4,8,9.53,6.21,9.53,4S7.4,0,4.76,0,0,1.79,0,4A3.47,3.47,0,0,0,.24,5.25a.45.45,0,0,0,.49.18,7.07,7.07,0,0,0,.7-.26s.24-.1.19-.48h0A2,2,0,0,1,1.49,4C1.49,2.62,3,1.5,4.76,1.5S8,2.62,8,4,6.57,6.5,4.76,6.5a4.06,4.06,0,0,1-1.68-.36A.49.49,0,0,0,2.49,6.42Z" fill="#afafaf"/><path d="M11.12,10.15H11l-1.49-.9a5.45,5.45,0,0,1-2.4.6,4.16,4.16,0,0,1-2.27-.62L5,9.17c2.22,0,5.43-1.66,5.61-4.37h0a3,3,0,0,1,.57,1.86,2.33,2.33,0,0,1-.65,1.64l.52,1.29s.22.44.16.51-.06.05-.11.05Z" fill="#afafaf"/><path d="M49.84,3.21h0a2.33,2.33,0,0,1,2.32,2.34v1.3a2.33,2.33,0,0,1-2.32,2.33h0a2.34,2.34,0,0,1-2.33-2.33V5.55A2.34,2.34,0,0,1,49.84,3.21Zm0,1.16h0a1,1,0,0,1,1,1V7a1,1,0,0,1-1,1h0a1,1,0,0,1-1-1V5.39A1,1,0,0,1,49.84,4.37Z" fill="#afafaf" fill-rule="evenodd"/><path d="M55.83,3.21h0a2.34,2.34,0,0,1,2.33,2.34V9.06H56.84V5.39a1,1,0,0,0-1-1h0a1,1,0,0,0-1,1V9.06H53.5V5.55A2.34,2.34,0,0,1,55.83,3.21Z" fill="#afafaf"/><path d="M36.93,9.06h0a2.33,2.33,0,0,0,2.33-2.32V3.21H37.94V6.9a1,1,0,0,1-1,1h0a1,1,0,0,1-1-1V3.21H34.6V6.74A2.33,2.33,0,0,0,36.93,9.06Z" fill="#afafaf"/><polygon points="43.2 3.37 42.12 3.37 42.12 1.79 40.97 1.79 40.97 3.37 39.91 3.37 40.26 4.39 40.97 4.39 40.97 9.03 42.12 9.03 42.12 4.39 43.2 4.39 43.2 3.37" fill="#afafaf"/><polygon points="46.76 3.37 45.67 3.37 45.67 1.79 44.52 1.79 44.52 3.37 43.47 3.37 43.81 4.39 44.52 4.39 44.52 9.03 45.67 9.03 45.67 4.39 46.76 4.39 46.76 3.37" fill="#afafaf"/><path d="M28.56,1.73H30.9a3.48,3.48,0,0,1,1.34.18,1.53,1.53,0,0,1,.66.63,2.11,2.11,0,0,1,.27,1,2,2,0,0,1-.23.95,1.6,1.6,0,0,1-.59.64,1.49,1.49,0,0,1,.8.64,2.09,2.09,0,0,1,.3,1.11,2.31,2.31,0,0,1-.38,1.35,1.54,1.54,0,0,1-.88.68A9,9,0,0,1,30.54,9h-2ZM29.73,3V4.64h.78a7.06,7.06,0,0,0,.87,0,.71.71,0,0,0,.47-.26A.86.86,0,0,0,32,3.77a.91.91,0,0,0-.14-.52A.64.64,0,0,0,31.55,3a8.16,8.16,0,0,0-1.14,0Zm0,2.9V7.79h1.1a3.49,3.49,0,0,0,.92-.07.71.71,0,0,0,.35-.3,1.13,1.13,0,0,0,.13-.58,1.2,1.2,0,0,0-.14-.59.88.88,0,0,0-.4-.32,4.1,4.1,0,0,0-1-.08Z" fill="#afafaf"/><polygon points="27.56 3.37 26.47 3.37 26.47 1.79 25.32 1.79 25.32 3.37 24.27 3.37 24.62 4.39 25.32 4.39 25.32 9.03 26.47 9.03 26.47 4.39 27.56 4.39 27.56 3.37" fill="#afafaf"/><path d="M21.49,3.21h0a2.34,2.34,0,0,1,2.33,2.34v1H20.48V7c0,1.25,1.94,1.19,2.3.72l1,.72c-1.13,1.36-4.59.87-4.59-1.61V5.55A2.34,2.34,0,0,1,21.49,3.21Zm-1,2.38h2v-.2a1,1,0,0,0-1-1h0a1,1,0,0,0-1,1Z" fill="#afafaf"/><path d="M17.27,3.05a3.82,3.82,0,0,0-2.68,0,1.14,1.14,0,0,0-.5.79h0V6.86a1.17,1.17,0,0,0,1.06,1,3.9,3.9,0,0,0,1.54-.09V6.12H15.9V4.77H18v3.4a.64.64,0,0,1-.31.64,4.55,4.55,0,0,1-2.73.4A2.52,2.52,0,0,1,12.75,7V3.79h0a2.67,2.67,0,0,1,1.14-1.92l0,0c1.56-.91,3.82,0,3.83,0Z" fill="#afafaf"/></svg>