<svg xmlns="http://www.w3.org/2000/svg" xmlns:xlink="http://www.w3.org/1999/xlink" width="60.304" height="60.304" viewBox="0 0 60.304 60.304">
  <defs>
    <filter id="Oval" x="0" y="0" width="60.304" height="60.304" filterUnits="userSpaceOnUse">
      <feOffset dy="3" input="SourceAlpha"/>
      <feGaussianBlur stdDeviation="3" result="blur"/>
      <feFlood flood-opacity="0.161"/>
      <feComposite operator="in" in2="blur"/>
      <feComposite in="SourceGraphic"/>
    </filter>
  </defs>
  <g id="Linkedin" transform="translate(9 6)">
    <g transform="matrix(1, 0, 0, 1, -9, -6)" filter="url(#Oval)">
      <ellipse id="Oval-2" data-name="Oval" cx="21.152" cy="21.152" rx="21.152" ry="21.152" transform="translate(9 6)" fill="#007ab7"/>
    </g>
    <path id="Linkedin-2" data-name="Linkedin" d="M12.042,15.186V10.255c0-1.178-.018-2.691-1.634-2.691-1.639,0-1.885,1.284-1.885,2.6v5.019H5.38V5.042H8.389v1.39H8.43A3.306,3.306,0,0,1,11.41,4.8c3.185,0,3.776,2.1,3.776,4.831v5.558Zm-8.648,0H.246V5.042H3.4V15.185h0ZM5.374,5.042H5.38ZM0,1.829A1.827,1.827,0,1,1,1.827,3.658,1.83,1.83,0,0,1,0,1.829Z" transform="translate(13.559 13.017)" fill="#fff"/>
  </g>
</svg>
